<svg width="1231" height="1231" viewBox="0 0 1231 1231" fill="none" xmlns="http://www.w3.org/2000/svg">
<path fill-rule="evenodd" clip-rule="evenodd" d="M1231 0H0V1231H1231V0ZM297.308 470.561C297.308 458.868 298.587 445.637 301.145 430.867C304.215 416.097 309.075 402.558 315.726 390.25C322.889 377.326 332.099 366.556 343.354 357.94C355.122 349.324 369.959 345.017 387.866 345.017C401.68 345.017 415.238 347.478 428.541 352.402C442.355 357.325 455.913 362.864 469.215 369.018C483.029 375.172 496.587 380.711 509.89 385.634C523.704 390.557 537.774 393.019 552.099 393.019C569.495 393.019 581.518 388.711 588.169 380.095C595.332 370.864 600.704 359.171 604.285 345.017H627.309C627.309 357.325 625.774 370.864 622.704 385.634C620.146 399.789 615.285 413.328 608.123 426.251C601.471 438.56 592.262 449.022 580.495 457.638C568.727 466.253 554.146 470.561 536.75 470.561C522.936 470.561 509.122 468.1 495.308 463.176C482.006 457.638 468.448 452.099 454.634 446.56C441.331 440.406 427.773 434.867 413.959 429.944C400.145 424.405 386.331 421.636 372.517 421.636C355.122 421.636 342.843 426.251 335.68 435.483C329.029 444.714 323.912 456.407 320.331 470.561H297.308ZM490.182 695.202C475.856 709.504 456.089 718.347 434.258 718.347C390.517 718.347 355.058 682.847 355.058 639.055C355.058 595.264 390.517 559.764 434.258 559.764C455.289 559.764 474.406 567.971 488.587 581.36L488.356 581.591L673.157 766.604L673.252 766.51C705.39 798.028 749.4 817.461 797.944 817.461C896.361 817.461 976.145 737.586 976.145 639.055C976.145 540.525 896.361 460.65 797.944 460.65C748.775 460.65 704.258 480.586 672.016 512.825L742.02 582.909C756.346 568.607 776.114 559.764 797.944 559.764C841.685 559.764 877.144 595.264 877.144 639.055C877.144 682.847 841.685 718.347 797.944 718.347C776.033 718.347 756.201 709.439 741.862 695.044L741.774 695.132L560.089 513.238L560.344 512.982C528.09 480.651 483.507 460.65 434.258 460.65C335.841 460.65 256.058 540.525 256.058 639.055C256.058 737.586 335.841 817.461 434.258 817.461C483.427 817.461 527.944 797.525 560.186 765.286L490.182 695.202Z" fill="#878787"/>
</svg>
